<svg xmlns="http://www.w3.org/2000/svg">
    <symbol id="arrow" viewBox="0 0 512 512">
        <path d="M508.875,248.458l-160-160c-4.167-4.167-10.917-4.167-15.083,0c-4.167,4.167-4.167,10.917,0,15.083l141.792,141.792
			H10.667C4.771,245.333,0,250.104,0,256s4.771,10.667,10.667,10.667h464.917L333.792,408.458c-4.167,4.167-4.167,10.917,0,15.083
			c2.083,2.083,4.813,3.125,7.542,3.125c2.729,0,5.458-1.042,7.542-3.125l160-160C513.042,259.375,513.042,252.625,508.875,248.458z"/>
    </symbol>

    <symbol id="big-hexagon" viewBox="0 0 101 116">
        <g>
        <path fill="red" width="100" height="100" d="M.15 29.002L50.252.004l50.103 28.998v57.995l-50.103 28.998L.149 86.997z"/>
        </g>    
    </symbol>

    <symbol id="small-hexagon" viewBox="0 0 91 104">
        <path d="M.16 26.002L45.253.003l45.093 25.999v51.995l-45.093 25.999L.16 77.997z"/>
    </symbol>

    <symbol id="advantage-1" viewBox="0 0 34 39">
        <path d="M25.527 23.613c.55 3.047.941 9.69-4.99 13.205-.792.47-1.372.024-1.357-.885.06-4.006-1.428-13.957-17.747-13.656-.925.016-1.482-.65-1.121-1.487 1.145-2.656 4.32-7.772 11.735-7.524.922.031 2.007-.517 2.497-1.287 1.283-2.019 4.072-5.762 8.48-8.435 2.72-1.698 5.22-2.418 6.78-2.724.906-.176 1.679-.26 1.71-.306l.06-.083c.214-.27.466-.43.564-.36l.07.053c.04.028.31-.024.605-.115.295-.092.483.051.421.319-.06.267-.085.503-.053.527l.058.043c.095.074.002.352-.216.621a1.89 1.89 0 0 1-.085.105c-.052.055.02.824.063 1.731a20.327 20.327 0 0 1-.257 4.215c-.024.158-.05.312-.077.461-.023.119-.04.228-.065.346-.108.557-.226 1.05-.336 1.464-.215.802-.689 2.132-1.037 2.973-1.026 2.467-2.594 5.163-4.973 7.958-.593.697-.89 1.946-.729 2.84zm-.73-7.837c.895-1.51.341-3.458-1.23-4.345-1.378-.777-3.078-.492-4.083.6-.141.153-.268.32-.378.508-.895 1.509-.345 3.454 1.23 4.345 1.374.779 3.074.492 4.082-.6a3.16 3.16 0 0 0 .379-.508zM9.104 37.372c.758-1.818 2.398-4.828 5.467-6.748.78-.487 1.261-.07.91.77-.796 1.903-2.49 5.094-5.417 6.824-.792.468-1.31-.004-.96-.846zm-5.88.595c.917-2.46 3.209-7.234 7.902-10.003.793-.466 1.279-.055.957.797-.972 2.574-3.376 7.666-7.845 10.089-.808.437-1.33-.03-1.014-.883zm-.996-5.889c.76-1.82 2.4-4.827 5.467-6.745.78-.487 1.262-.07.91.77-.796 1.902-2.49 5.092-5.416 6.82-.792.467-1.312-.005-.96-.845z"/>
    </symbol>

    <symbol id="advantage-2" viewBox="0 0 41 38">
        <path d="M26.6 37.965c-.528.071-5.507.006-5.875 0-.368.006-5.348.071-5.876 0-.549-.075 0-.513.694-1.024.695-.511.767-1.28.767-1.28l.262-1.665h8.305l.26 1.666s.074.768.77 1.28c.693.512 1.241.95.694 1.023zM11.37 23.63c2.218-.017 2.494-.552 3.217-2.78 1.334-3.517 7.341.92 3.618 2.46-3.722 1.542-9.055.337-6.836.32zM34.033 4.552L20.652 19.117c-1.124 1.395-.864 1.333-1.94.465-1.077-.867-1.083-.6.04-1.995L30.137 1.409C31.26.014 33.043-.413 34.12.455c1.077.867 1.038 2.701-.086 4.097zM32.938.644s-1.635-.249-2.466 1.11c.555.443.721.637.721.637s.195-.831 1.745-1.747zm7.834 6.881v23.262c0 .886-.718 1.605-1.604 1.605H2.28a1.604 1.604 0 0 1-1.603-1.605V7.525c0-.885.718-1.604 1.603-1.604h23.022l-1.695 2.406H3.084V27.58h35.282V8.327h-6.415l2.211-2.406h5.006c.886 0 1.604.719 1.604 1.604z"/>
    </symbol>

    <symbol id="advantage-3" viewBox="0 0 37 37">
        <path d="M37 3.894v29.211A3.906 3.906 0 0 1 33.11 37H3.895A3.908 3.908 0 0 1 0 33.105V3.894A3.905 3.905 0 0 1 3.895-.001H33.11C35.248 0 37 1.75 37 3.894zM4.225 24.745h28.55V5.27H4.224zm30.101 5.475H14.395a3.331 3.331 0 0 0-3.239-2.567 3.332 3.332 0 0 0-3.238 2.567H2.676v1.542h5.246a3.326 3.326 0 0 0 3.234 2.56 3.327 3.327 0 0 0 3.235-2.56h19.935zM21.906 8.093h3.982v13.361h-3.981zM10.922 13.23h3.983v8.223H10.92zm5.493-2.183h3.984v10.406h-3.984z"/>
    </symbol>
    
    <symbol id="advantage-4" viewBox="0 0 37 38">
        <path d="M12.17 11.163l-.06 12.663c.002 1.06-1.34 2.923-1.34 2.923-.992 2.957 1.5 4.01-.243 5.817C12.844 37.326 8.187 38 8.187 38 6.59 38 6.84 36.409 6.84 36.409l-.016-9.916c.136-2.514-1.433-2.572-1.433-2.572-3.789.005-3.95-4.053-3.956-4.542a3.293 3.293 0 0 1-1.439-2.72c0-1.127.568-2.12 1.431-2.712v-.11c-.007-3.985 4.109-4.172 4.109-4.172l5.206-.01c1.683-.003 1.432 1.504 1.428 1.508zm24.833 5.017c.004 1.725-.973 3.214-2.388 3.976l.023 11.55c.078 1.428-1.025.059-1.025.059s-4.779-8.837-18.754-8.81c0 0-1.32.001-1.32-1.259l-.022-10.93s-.236-1.26 1.239-1.263c0 0 12.504.736 18.549-8.692 0 0 1.273-1.684 1.277-.17l.019 11.573c1.418.76 2.402 2.237 2.402 3.966zM33.04 3.33c-3.976 6.18-12.197 7.334-12.197 7.334 10.652-.108 12.197-7.334 12.197-7.334zm1.93 9.851c1.583 2.32 1.16 4.29 1.16 4.29.965-3.053-1.16-4.29-1.16-4.29z"/>
    </symbol>

    <symbol id="twitter" viewBox="0 0 37 37">
        <path d="M37 18.5C37 28.717 28.718 37 18.5 37 8.284 37 .002 28.717.002 18.5.001 8.282 8.283 0 18.501 0 28.718 0 37 8.282 37 18.5zm-9.158-5.23a7.299 7.299 0 0 1-2.093.573 3.656 3.656 0 0 0 1.602-2.016 7.306 7.306 0 0 1-2.314.885 3.644 3.644 0 0 0-6.209 3.323 10.345 10.345 0 0 1-7.509-3.807 3.644 3.644 0 0 0 1.128 4.865 3.638 3.638 0 0 1-1.65-.456l-.001.045a3.647 3.647 0 0 0 2.923 3.573 3.627 3.627 0 0 1-1.645.063 3.646 3.646 0 0 0 3.404 2.53 7.305 7.305 0 0 1-5.395 1.508 10.307 10.307 0 0 0 5.585 1.638c6.701 0 10.366-5.552 10.366-10.368 0-.157-.002-.315-.01-.471a7.397 7.397 0 0 0 1.818-1.885z"/>
    </symbol>

    <symbol id="facebook" viewBox="0 0 37 37">
        <path d="M36.992 18.506c0 10.22-8.281 18.507-18.496 18.507C8.282 37.013 0 28.726 0 18.506S8.282 0 18.496 0c10.215 0 18.496 8.284 18.496 18.506zm-13.31-3.828h-3.44l.004-1.916c0-.997.07-1.531 1.501-1.531h1.915V7.403H20.6c-3.674 0-4.52 1.898-4.52 5.022l.005 2.253-2.775.002v3.826h2.775V29.61h4.159l.002-11.104 3.032-.002z"/>
    </symbol>

    <symbol id="linkedin" viewBox="0 0 37 37">
        <path d="M36.992 18.506c0 10.22-8.281 18.507-18.496 18.507C8.282 37.013 0 28.726 0 18.506S8.282 0 18.496 0c10.215 0 18.496 8.284 18.496 18.506zm-23.12-7.229H9.248V27.47h4.624zm0-3.163c0-1.195-.97-2.167-2.169-2.17a2.17 2.17 0 0 0 0 4.34 2.169 2.169 0 0 0 2.169-2.17zM30.056 17.6c0-5.422-3.125-6.32-4.624-6.32a7.739 7.739 0 0 0-4.624 1.545v-1.547h-4.624V27.47h4.624V17.458s.46-1.994 2.85-1.994c1.44 0 1.774.821 1.774 1.994V27.47h4.624z"/>
    </symbol>

    <symbol id="quotes" viewBox="0 0 34 29">
        <path d="M7.285 15.711h8.506v13.284H-.006V15.71C-.006 5.688 2.427.005 10.93.005v8.093c-3.644 0-3.644.726-3.644 5.075zm26.72 0v13.284H18.218V15.71C18.218 5.688 20.648.005 29.15.005v8.094c-3.643 0-3.643.726-3.643 5.075v2.537z"/>
    </symbol>

    <symbol id="arrow-left" viewBox="0 0 31 31">
        <path d="M-.01 15.5C-.01 6.954 6.946 0 15.495 0c8.547 0 15.5 6.954 15.5 15.5S24.042 31 15.495 31C6.945 31-.01 24.045-.01 15.5zm1.422 0c0 7.763 6.318 14.077 14.083 14.077 7.763 0 14.078-6.314 14.078-14.077 0-7.762-6.315-14.078-14.078-14.078C7.73 1.422 1.412 7.738 1.412 15.5zm2.955.102l17.397-10.04-6.068 9.883 6.068 10.2z"/>
    </symbol>

    <symbol id="arrow-right" viewBox="0 0 31 31">
        <path d="M15.504 31c-8.546 0-15.5-6.954-15.5-15.5S6.958 0 15.504 0c8.55 0 15.506 6.954 15.506 15.5S24.054 31 15.504 31zm0-29.578C7.742 1.422 1.427 7.738 1.427 15.5c0 7.763 6.315 14.077 14.077 14.077 7.766 0 14.083-6.314 14.083-14.077 0-7.762-6.317-14.078-14.083-14.078zM9.235 25.644l6.069-10.2-6.069-9.882 17.398 10.04z"/>
    </symbol>
</svg>
